<svg id="visual" viewBox="0 0 900 600" width="900" height="600" xmlns="http://www.w3.org/2000/svg" xmlns:xlink="http://www.w3.org/1999/xlink" version="1.1"><rect x="0" y="0" width="900" height="600" fill="#001220"></rect><defs><linearGradient id="grad1_0" x1="33.3%" y1="0%" x2="100%" y2="100%"><stop offset="20%" stop-color="#001220" stop-opacity="1"></stop><stop offset="80%" stop-color="#001220" stop-opacity="1"></stop></linearGradient></defs><defs><linearGradient id="grad2_0" x1="0%" y1="0%" x2="66.7%" y2="100%"><stop offset="20%" stop-color="#001220" stop-opacity="1"></stop><stop offset="80%" stop-color="#001220" stop-opacity="1"></stop></linearGradient></defs><g transform="translate(900, 0)"><path d="M0 486.7C-70.2 483.7 -140.5 480.6 -183.3 442.5C-226.1 404.5 -241.5 331.6 -287.8 287.8C-334.1 244 -411.4 229.4 -449.7 186.3C-488 143.2 -487.4 71.6 -486.7 0L0 0Z" fill="#FBAE3C"></path></g><g transform="translate(0, 600)"><path d="M0 -486.7C43.2 -436.2 86.4 -385.6 153.8 -371.4C221.3 -357.2 313.1 -379.5 344.2 -344.2C375.3 -308.8 345.7 -215.8 359.4 -148.9C373 -81.9 429.9 -40.9 486.7 0L0 0Z" fill="#FBAE3C"></path></g></svg>