<svg xmlns="http://www.w3.org/2000/svg" viewBox="0 0 64 64" width="120" height="120">
      <path fill="#fff" d="M32 2C15.432 2 2 15.432 2 32s13.432 30 30 30 30-13.432 30-30S48.568 2 32 2z"/>
      <path fill="#4f46e5" d="M44 24c-2.209 0-4-1.791-4-4 0-1.105.895-2 2-2s2-.895 2-2-1.791-2-4-2c-2.21 0-4 1.791-4 4 0 1.304.627 2.464 1.602 3.2C34.723 22.05 30.666 24 26 24c-6.627 0-12 5.373-12 12 0 5.6 3.822 10.303 9 11.656V54h4v-5.64a12.014 12.014 0 0 0 8-11.36c0-2.773-.926-5.324-2.478-7.387C35.432 27.932 39.456 28 44 28v-4z"/>
    </svg>